<?xml version="1.0" standalone="no"?>
<!DOCTYPE svg PUBLIC "-//W3C//DTD SVG 20010904//EN"
 "http://www.w3.org/TR/2001/REC-SVG-20010904/DTD/svg10.dtd">
<svg version="1.0" xmlns="http://www.w3.org/2000/svg"
 width="456.000000pt" height="456.000000pt" viewBox="0 0 456.000000 456.000000"
 preserveAspectRatio="xMidYMid meet">
<metadata>
Created by potrace 1.14, written by Peter Selinger 2001-2017
</metadata>
<g transform="translate(0.000000,456.000000) scale(0.100000,-0.100000)"
fill="#000000" stroke="none">
<path d="M3651 3111 c-6 -10 -7 -21 -4 -25 3 -3 1 -6 -6 -6 -7 0 -10 -4 -6 -9
3 -5 1 -12 -5 -16 -6 -4 -8 -11 -5 -16 4 -5 2 -9 -3 -9 -5 0 -9 -7 -10 -15 -1
-8 -3 -22 -4 -30 -1 -8 -5 -15 -10 -15 -4 0 -7 -3 -7 -7 5 -31 -3 -33 -131
-33 -79 0 -130 -4 -131 -10 -5 -35 -5 -76 0 -85 3 -5 7 -16 8 -22 2 -7 4 -19
6 -25 1 -7 6 -19 10 -25 5 -7 5 -13 1 -13 -3 0 -2 -6 3 -12 6 -7 9 -21 8 -30
-2 -10 0 -18 5 -18 8 0 5 -72 -5 -110 -4 -14 -7 -31 -7 -37 -1 -7 -5 -13 -9
-13 -4 0 -6 -9 -4 -20 2 -11 0 -22 -5 -25 -5 -3 -7 -12 -3 -20 3 -8 0 -15 -7
-15 -6 0 -9 -4 -5 -9 3 -5 1 -12 -4 -16 -5 -3 -8 -14 -6 -25 2 -11 -1 -22 -6
-25 -5 -4 -7 -11 -4 -16 4 -5 2 -9 -2 -9 -5 0 -10 -8 -11 -17 -2 -19 -9 -54
-12 -63 -1 -3 -2 -8 -1 -12 0 -5 -114 -8 -254 -8 -197 0 -255 3 -256 13 -1 6
-2 75 -3 152 l-1 140 -35 3 -35 3 0 -153 0 -153 -375 -3 -375 -2 0 155 1 155
-32 0 c-18 0 -34 -6 -36 -12 -2 -7 -4 -77 -3 -155 l1 -143 -183 0 -182 0 -60
40 c-33 22 -64 40 -70 40 -5 0 -11 4 -13 9 -4 11 -114 81 -128 81 -5 0 -10 4
-10 8 0 5 -12 15 -28 23 -15 8 -30 18 -34 24 -7 10 -794 20 -833 11 -16 -4
-20 -13 -19 -38 1 -18 3 -35 4 -38 1 -3 2 -8 1 -12 0 -5 4 -8 11 -8 6 0 9 -3
5 -6 -3 -3 3 -15 13 -27 11 -11 17 -24 14 -29 -3 -4 0 -8 6 -8 6 0 8 -4 5 -10
-3 -5 -1 -10 4 -10 6 0 11 -7 11 -15 0 -8 5 -15 11 -15 5 0 8 -4 5 -9 -4 -5
-2 -11 3 -13 5 -1 11 -9 13 -17 2 -8 11 -23 21 -33 10 -10 15 -23 12 -28 -4
-6 -1 -10 5 -10 6 0 9 -4 6 -9 -3 -5 1 -12 10 -15 8 -3 12 -10 9 -16 -3 -5 -2
-10 3 -10 6 0 13 -11 16 -25 4 -14 11 -25 16 -25 6 0 10 -6 10 -13 0 -8 9 -24
20 -37 11 -12 17 -27 14 -31 -3 -5 -1 -9 4 -9 4 0 19 -20 31 -45 12 -24 26
-47 32 -50 5 -4 7 -11 4 -16 -4 -5 -1 -9 5 -9 6 0 8 -5 5 -10 -3 -6 -1 -10 4
-10 6 0 11 -6 11 -14 0 -7 7 -19 15 -26 8 -7 12 -16 9 -21 -3 -5 0 -9 5 -9 6
0 10 -6 9 -12 -4 -18 3276 -24 3309 -7 12 6 22 19 22 28 1 23 9 76 11 76 2 0
4 14 6 30 5 42 11 80 13 80 4 0 11 35 16 75 2 19 5 35 6 35 3 0 10 49 11 78 0
15 4 27 8 27 3 0 7 6 7 13 1 17 11 77 18 107 3 14 7 49 9 78 l4 52 -113 0
c-99 0 -113 2 -117 18 -2 9 -3 124 -3 255 l1 237 -60 0 -61 0 1 100 1 100 -63
0 c-52 0 -65 -3 -73 -19z m174 -341 l0 -85 -178 -3 c-186 -3 -209 2 -199 40 2
10 -1 18 -7 18 -7 0 -10 4 -7 9 3 4 1 23 -5 42 -23 76 -42 70 189 67 l207 -3
0 -85z m0 -250 l0 -90 -117 0 c-124 0 -150 -5 -185 -39 -12 -12 -25 -21 -29
-21 -4 0 -17 -10 -28 -22 -38 -39 -90 -77 -99 -71 -4 2 -4 10 1 16 5 7 8 20 7
29 -2 10 1 20 6 24 5 3 7 10 4 15 -4 5 -1 9 5 9 7 0 10 7 7 15 -4 8 -2 17 4
20 5 4 7 10 4 15 -3 5 -1 11 5 15 6 4 8 11 5 16 -4 5 -3 15 2 22 7 12 9 18 15
47 2 8 6 20 9 25 3 6 5 17 4 25 -2 36 17 39 200 40 l181 0 -1 -90z m-2687
-130 c12 -11 24 -20 28 -20 8 0 115 -70 124 -81 3 -3 21 -14 41 -23 20 -9 46
-26 57 -36 12 -11 25 -20 31 -20 5 0 11 -6 13 -12 7 -19 1963 -24 1982 -6 8 7
26 22 42 33 15 11 41 32 56 48 16 15 33 27 38 27 6 0 10 4 10 10 0 5 13 16 30
25 23 12 72 15 251 15 207 0 221 -1 214 -17 -4 -10 -8 -30 -8 -45 0 -16 -4
-28 -7 -28 -4 0 -6 -11 -5 -25 2 -14 0 -25 -5 -25 -5 0 -7 -11 -5 -25 1 -14
-1 -25 -4 -25 -4 0 -8 -10 -9 -22 -2 -38 -10 -93 -12 -95 -1 -2 -4 -12 -5 -23
-1 -11 -4 -21 -5 -22 -2 -3 -4 -16 -13 -73 -2 -11 -6 -25 -10 -31 -3 -6 -5
-21 -2 -33 2 -11 0 -21 -5 -21 -5 0 -7 -9 -5 -20 4 -20 -1 -20 -1593 -17
l-1597 2 -13 28 c-7 15 -17 27 -23 27 -5 0 -9 3 -8 8 2 15 -14 52 -23 52 -5 0
-7 4 -4 8 3 5 -2 18 -12 28 -9 11 -18 26 -20 33 -1 7 -9 20 -17 28 -8 8 -15
19 -15 24 0 5 -11 26 -23 47 -13 20 -32 51 -43 67 -10 17 -17 33 -16 38 1 4
-2 7 -6 7 -5 0 -14 16 -22 35 -8 19 -17 35 -22 35 -4 0 -8 4 -8 10 0 5 -13 32
-30 60 -16 28 -30 55 -30 60 0 6 132 10 343 10 329 0 344 -1 365 -20z"/>
</g>
</svg>
